{
	"asset":{
		"generator":"Khronos glTF Blender I/O v4.0.44",
		"version":"2.0"
	},
	"scene":0,
	"scenes":[
		{
			"name":"Scene",
			"nodes":[
				5
			]
		}
	],
	"nodes":[
		{
			"name":"ROUES",
			"rotation":[
				0.70710688829422,
				-5.338507236274381e-08,
				-5.338507236274381e-08,
				0.7071066498756409
			]
		},
		{
			"name":"ELICE",
			"rotation":[
				-4.695625221984301e-08,
				1.4086875665952903e-08,
				-0.6087614297866821,
				0.7933533787727356
			],
			"translation":[
				0.12971898913383484,
				0.17835304141044617,
				5.856432835571468e-06
			]
		},
		{
			"name":"GOUV",
			"rotation":[
				-1.3201044701816045e-08,
				-2.68440842887685e-08,
				0.15643449127674103,
				0.9876883029937744
			],
			"scale":[
				1,
				0.9999999403953552,
				0.9999999403953552
			],
			"translation":[
				-0.3604172170162201,
				0.0710207000374794,
				0.0002496674132999033
			]
		},
		{
			"name":"neutral_bone",
			"rotation":[
				-0.7071067690849304,
				0,
				0,
				0.7071067690849304
			]
		},
		{
			"mesh":0,
			"name":"plane",
			"skin":0
		},
		{
			"children":[
				4,
				0,
				1,
				2,
				3
			],
			"name":"Armature",
			"translation":[
				-0.0014949236065149307,
				0.03318091481924057,
				-0.00019470867118798196
			]
		}
	],
	"animations":[
		{
			"channels":[
				{
					"sampler":0,
					"target":{
						"node":0,
						"path":"translation"
					}
				},
				{
					"sampler":1,
					"target":{
						"node":0,
						"path":"rotation"
					}
				},
				{
					"sampler":2,
					"target":{
						"node":0,
						"path":"scale"
					}
				},
				{
					"sampler":3,
					"target":{
						"node":1,
						"path":"translation"
					}
				},
				{
					"sampler":4,
					"target":{
						"node":1,
						"path":"rotation"
					}
				},
				{
					"sampler":5,
					"target":{
						"node":1,
						"path":"scale"
					}
				},
				{
					"sampler":6,
					"target":{
						"node":2,
						"path":"translation"
					}
				},
				{
					"sampler":7,
					"target":{
						"node":2,
						"path":"rotation"
					}
				},
				{
					"sampler":8,
					"target":{
						"node":2,
						"path":"scale"
					}
				}
			],
			"name":"elice",
			"samplers":[
				{
					"input":7,
					"interpolation":"STEP",
					"output":8
				},
				{
					"input":7,
					"interpolation":"STEP",
					"output":9
				},
				{
					"input":7,
					"interpolation":"STEP",
					"output":10
				},
				{
					"input":7,
					"interpolation":"STEP",
					"output":11
				},
				{
					"input":12,
					"interpolation":"LINEAR",
					"output":13
				},
				{
					"input":7,
					"interpolation":"STEP",
					"output":14
				},
				{
					"input":7,
					"interpolation":"STEP",
					"output":15
				},
				{
					"input":7,
					"interpolation":"STEP",
					"output":16
				},
				{
					"input":7,
					"interpolation":"STEP",
					"output":17
				}
			]
		},
		{
			"channels":[
				{
					"sampler":0,
					"target":{
						"node":0,
						"path":"translation"
					}
				},
				{
					"sampler":1,
					"target":{
						"node":0,
						"path":"rotation"
					}
				},
				{
					"sampler":2,
					"target":{
						"node":0,
						"path":"scale"
					}
				},
				{
					"sampler":3,
					"target":{
						"node":1,
						"path":"translation"
					}
				},
				{
					"sampler":4,
					"target":{
						"node":1,
						"path":"rotation"
					}
				},
				{
					"sampler":5,
					"target":{
						"node":1,
						"path":"scale"
					}
				},
				{
					"sampler":6,
					"target":{
						"node":2,
						"path":"translation"
					}
				},
				{
					"sampler":7,
					"target":{
						"node":2,
						"path":"rotation"
					}
				},
				{
					"sampler":8,
					"target":{
						"node":2,
						"path":"scale"
					}
				}
			],
			"name":"wheels",
			"samplers":[
				{
					"input":18,
					"interpolation":"STEP",
					"output":19
				},
				{
					"input":20,
					"interpolation":"LINEAR",
					"output":21
				},
				{
					"input":18,
					"interpolation":"STEP",
					"output":22
				},
				{
					"input":18,
					"interpolation":"STEP",
					"output":23
				},
				{
					"input":18,
					"interpolation":"STEP",
					"output":24
				},
				{
					"input":18,
					"interpolation":"STEP",
					"output":25
				},
				{
					"input":18,
					"interpolation":"STEP",
					"output":26
				},
				{
					"input":18,
					"interpolation":"STEP",
					"output":27
				},
				{
					"input":18,
					"interpolation":"STEP",
					"output":28
				}
			]
		},
		{
			"channels":[
				{
					"sampler":0,
					"target":{
						"node":0,
						"path":"translation"
					}
				},
				{
					"sampler":1,
					"target":{
						"node":0,
						"path":"rotation"
					}
				},
				{
					"sampler":2,
					"target":{
						"node":0,
						"path":"scale"
					}
				},
				{
					"sampler":3,
					"target":{
						"node":1,
						"path":"translation"
					}
				},
				{
					"sampler":4,
					"target":{
						"node":1,
						"path":"rotation"
					}
				},
				{
					"sampler":5,
					"target":{
						"node":1,
						"path":"scale"
					}
				},
				{
					"sampler":6,
					"target":{
						"node":2,
						"path":"translation"
					}
				},
				{
					"sampler":7,
					"target":{
						"node":2,
						"path":"rotation"
					}
				},
				{
					"sampler":8,
					"target":{
						"node":2,
						"path":"scale"
					}
				}
			],
			"name":"left",
			"samplers":[
				{
					"input":29,
					"interpolation":"STEP",
					"output":30
				},
				{
					"input":29,
					"interpolation":"STEP",
					"output":31
				},
				{
					"input":29,
					"interpolation":"STEP",
					"output":32
				},
				{
					"input":29,
					"interpolation":"STEP",
					"output":33
				},
				{
					"input":29,
					"interpolation":"STEP",
					"output":34
				},
				{
					"input":29,
					"interpolation":"STEP",
					"output":35
				},
				{
					"input":29,
					"interpolation":"STEP",
					"output":36
				},
				{
					"input":37,
					"interpolation":"LINEAR",
					"output":38
				},
				{
					"input":29,
					"interpolation":"STEP",
					"output":39
				}
			]
		},
		{
			"channels":[
				{
					"sampler":0,
					"target":{
						"node":0,
						"path":"translation"
					}
				},
				{
					"sampler":1,
					"target":{
						"node":0,
						"path":"rotation"
					}
				},
				{
					"sampler":2,
					"target":{
						"node":0,
						"path":"scale"
					}
				},
				{
					"sampler":3,
					"target":{
						"node":1,
						"path":"translation"
					}
				},
				{
					"sampler":4,
					"target":{
						"node":1,
						"path":"rotation"
					}
				},
				{
					"sampler":5,
					"target":{
						"node":1,
						"path":"scale"
					}
				},
				{
					"sampler":6,
					"target":{
						"node":2,
						"path":"translation"
					}
				},
				{
					"sampler":7,
					"target":{
						"node":2,
						"path":"rotation"
					}
				},
				{
					"sampler":8,
					"target":{
						"node":2,
						"path":"scale"
					}
				}
			],
			"name":"right",
			"samplers":[
				{
					"input":29,
					"interpolation":"STEP",
					"output":40
				},
				{
					"input":29,
					"interpolation":"STEP",
					"output":41
				},
				{
					"input":29,
					"interpolation":"STEP",
					"output":42
				},
				{
					"input":29,
					"interpolation":"STEP",
					"output":43
				},
				{
					"input":29,
					"interpolation":"STEP",
					"output":44
				},
				{
					"input":29,
					"interpolation":"STEP",
					"output":45
				},
				{
					"input":29,
					"interpolation":"STEP",
					"output":46
				},
				{
					"input":37,
					"interpolation":"LINEAR",
					"output":47
				},
				{
					"input":29,
					"interpolation":"STEP",
					"output":48
				}
			]
		}
	],
	"materials":[
		{
			"doubleSided":true,
			"emissiveFactor":[
				1,
				1,
				1
			],
			"emissiveTexture":{
				"index":0
			},
			"name":"plane_Baked",
			"pbrMetallicRoughness":{
				"baseColorFactor":[
					0,
					0,
					0,
					1
				]
			}
		}
	],
	"meshes":[
		{
			"name":"Cube.012",
			"primitives":[
				{
					"attributes":{
						"POSITION":0,
						"NORMAL":1,
						"TEXCOORD_0":2,
						"JOINTS_0":3,
						"WEIGHTS_0":4
					},
					"indices":5,
					"material":0
				}
			]
		}
	],
	"textures":[
		{
			"sampler":0,
			"source":0
		}
	],
	"images":[
		{
			"mimeType":"image/jpeg",
			"name":"plane_Bake1_CyclesBake_COMBINED",
			"uri":"plane_Bake1_CyclesBake_COMBINED.jpg"
		}
	],
	"skins":[
		{
			"inverseBindMatrices":6,
			"joints":[
				0,
				1,
				2,
				3
			],
			"name":"Armature"
		}
	],
	"accessors":[
		{
			"bufferView":0,
			"componentType":5126,
			"count":6713,
			"max":[
				0.12849241495132446,
				0.26194334030151367,
				0.4595141112804413
			],
			"min":[
				-0.48790794610977173,
				-0.0004352053510956466,
				-0.45968881249427795
			],
			"type":"VEC3"
		},
		{
			"bufferView":1,
			"componentType":5126,
			"count":6713,
			"type":"VEC3"
		},
		{
			"bufferView":2,
			"componentType":5126,
			"count":6713,
			"type":"VEC2"
		},
		{
			"bufferView":3,
			"componentType":5121,
			"count":6713,
			"type":"VEC4"
		},
		{
			"bufferView":4,
			"componentType":5126,
			"count":6713,
			"type":"VEC4"
		},
		{
			"bufferView":5,
			"componentType":5123,
			"count":26442,
			"type":"SCALAR"
		},
		{
			"bufferView":6,
			"componentType":5126,
			"count":4,
			"type":"MAT4"
		},
		{
			"bufferView":7,
			"componentType":5126,
			"count":2,
			"max":[
				0.8333333333333334
			],
			"min":[
				0.041666666666666664
			],
			"type":"SCALAR"
		},
		{
			"bufferView":8,
			"componentType":5126,
			"count":2,
			"type":"VEC3"
		},
		{
			"bufferView":9,
			"componentType":5126,
			"count":2,
			"type":"VEC4"
		},
		{
			"bufferView":10,
			"componentType":5126,
			"count":2,
			"type":"VEC3"
		},
		{
			"bufferView":11,
			"componentType":5126,
			"count":2,
			"type":"VEC3"
		},
		{
			"bufferView":12,
			"componentType":5126,
			"count":20,
			"max":[
				0.8333333333333334
			],
			"min":[
				0.041666666666666664
			],
			"type":"SCALAR"
		},
		{
			"bufferView":13,
			"componentType":5126,
			"count":20,
			"type":"VEC4"
		},
		{
			"bufferView":14,
			"componentType":5126,
			"count":2,
			"type":"VEC3"
		},
		{
			"bufferView":15,
			"componentType":5126,
			"count":2,
			"type":"VEC3"
		},
		{
			"bufferView":16,
			"componentType":5126,
			"count":2,
			"type":"VEC4"
		},
		{
			"bufferView":17,
			"componentType":5126,
			"count":2,
			"type":"VEC3"
		},
		{
			"bufferView":18,
			"componentType":5126,
			"count":2,
			"max":[
				0.8333333333333334
			],
			"min":[
				0
			],
			"type":"SCALAR"
		},
		{
			"bufferView":19,
			"componentType":5126,
			"count":2,
			"type":"VEC3"
		},
		{
			"bufferView":20,
			"componentType":5126,
			"count":21,
			"max":[
				0.8333333333333334
			],
			"min":[
				0
			],
			"type":"SCALAR"
		},
		{
			"bufferView":21,
			"componentType":5126,
			"count":21,
			"type":"VEC4"
		},
		{
			"bufferView":22,
			"componentType":5126,
			"count":2,
			"type":"VEC3"
		},
		{
			"bufferView":23,
			"componentType":5126,
			"count":2,
			"type":"VEC3"
		},
		{
			"bufferView":24,
			"componentType":5126,
			"count":2,
			"type":"VEC4"
		},
		{
			"bufferView":25,
			"componentType":5126,
			"count":2,
			"type":"VEC3"
		},
		{
			"bufferView":26,
			"componentType":5126,
			"count":2,
			"type":"VEC3"
		},
		{
			"bufferView":27,
			"componentType":5126,
			"count":2,
			"type":"VEC4"
		},
		{
			"bufferView":28,
			"componentType":5126,
			"count":2,
			"type":"VEC3"
		},
		{
			"bufferView":29,
			"componentType":5126,
			"count":2,
			"max":[
				0.4166666666666667
			],
			"min":[
				0
			],
			"type":"SCALAR"
		},
		{
			"bufferView":30,
			"componentType":5126,
			"count":2,
			"type":"VEC3"
		},
		{
			"bufferView":31,
			"componentType":5126,
			"count":2,
			"type":"VEC4"
		},
		{
			"bufferView":32,
			"componentType":5126,
			"count":2,
			"type":"VEC3"
		},
		{
			"bufferView":33,
			"componentType":5126,
			"count":2,
			"type":"VEC3"
		},
		{
			"bufferView":34,
			"componentType":5126,
			"count":2,
			"type":"VEC4"
		},
		{
			"bufferView":35,
			"componentType":5126,
			"count":2,
			"type":"VEC3"
		},
		{
			"bufferView":36,
			"componentType":5126,
			"count":2,
			"type":"VEC3"
		},
		{
			"bufferView":37,
			"componentType":5126,
			"count":11,
			"max":[
				0.4166666666666667
			],
			"min":[
				0
			],
			"type":"SCALAR"
		},
		{
			"bufferView":38,
			"componentType":5126,
			"count":11,
			"type":"VEC4"
		},
		{
			"bufferView":39,
			"componentType":5126,
			"count":2,
			"type":"VEC3"
		},
		{
			"bufferView":40,
			"componentType":5126,
			"count":2,
			"type":"VEC3"
		},
		{
			"bufferView":41,
			"componentType":5126,
			"count":2,
			"type":"VEC4"
		},
		{
			"bufferView":42,
			"componentType":5126,
			"count":2,
			"type":"VEC3"
		},
		{
			"bufferView":43,
			"componentType":5126,
			"count":2,
			"type":"VEC3"
		},
		{
			"bufferView":44,
			"componentType":5126,
			"count":2,
			"type":"VEC4"
		},
		{
			"bufferView":45,
			"componentType":5126,
			"count":2,
			"type":"VEC3"
		},
		{
			"bufferView":46,
			"componentType":5126,
			"count":2,
			"type":"VEC3"
		},
		{
			"bufferView":47,
			"componentType":5126,
			"count":11,
			"type":"VEC4"
		},
		{
			"bufferView":48,
			"componentType":5126,
			"count":2,
			"type":"VEC3"
		}
	],
	"bufferViews":[
		{
			"buffer":0,
			"byteLength":80556,
			"byteOffset":0,
			"target":34962
		},
		{
			"buffer":0,
			"byteLength":80556,
			"byteOffset":80556,
			"target":34962
		},
		{
			"buffer":0,
			"byteLength":53704,
			"byteOffset":161112,
			"target":34962
		},
		{
			"buffer":0,
			"byteLength":26852,
			"byteOffset":214816,
			"target":34962
		},
		{
			"buffer":0,
			"byteLength":107408,
			"byteOffset":241668,
			"target":34962
		},
		{
			"buffer":0,
			"byteLength":52884,
			"byteOffset":349076,
			"target":34963
		},
		{
			"buffer":0,
			"byteLength":256,
			"byteOffset":401960
		},
		{
			"buffer":0,
			"byteLength":8,
			"byteOffset":402216
		},
		{
			"buffer":0,
			"byteLength":24,
			"byteOffset":402224
		},
		{
			"buffer":0,
			"byteLength":32,
			"byteOffset":402248
		},
		{
			"buffer":0,
			"byteLength":24,
			"byteOffset":402280
		},
		{
			"buffer":0,
			"byteLength":24,
			"byteOffset":402304
		},
		{
			"buffer":0,
			"byteLength":80,
			"byteOffset":402328
		},
		{
			"buffer":0,
			"byteLength":320,
			"byteOffset":402408
		},
		{
			"buffer":0,
			"byteLength":24,
			"byteOffset":402728
		},
		{
			"buffer":0,
			"byteLength":24,
			"byteOffset":402752
		},
		{
			"buffer":0,
			"byteLength":32,
			"byteOffset":402776
		},
		{
			"buffer":0,
			"byteLength":24,
			"byteOffset":402808
		},
		{
			"buffer":0,
			"byteLength":8,
			"byteOffset":402832
		},
		{
			"buffer":0,
			"byteLength":24,
			"byteOffset":402840
		},
		{
			"buffer":0,
			"byteLength":84,
			"byteOffset":402864
		},
		{
			"buffer":0,
			"byteLength":336,
			"byteOffset":402948
		},
		{
			"buffer":0,
			"byteLength":24,
			"byteOffset":403284
		},
		{
			"buffer":0,
			"byteLength":24,
			"byteOffset":403308
		},
		{
			"buffer":0,
			"byteLength":32,
			"byteOffset":403332
		},
		{
			"buffer":0,
			"byteLength":24,
			"byteOffset":403364
		},
		{
			"buffer":0,
			"byteLength":24,
			"byteOffset":403388
		},
		{
			"buffer":0,
			"byteLength":32,
			"byteOffset":403412
		},
		{
			"buffer":0,
			"byteLength":24,
			"byteOffset":403444
		},
		{
			"buffer":0,
			"byteLength":8,
			"byteOffset":403468
		},
		{
			"buffer":0,
			"byteLength":24,
			"byteOffset":403476
		},
		{
			"buffer":0,
			"byteLength":32,
			"byteOffset":403500
		},
		{
			"buffer":0,
			"byteLength":24,
			"byteOffset":403532
		},
		{
			"buffer":0,
			"byteLength":24,
			"byteOffset":403556
		},
		{
			"buffer":0,
			"byteLength":32,
			"byteOffset":403580
		},
		{
			"buffer":0,
			"byteLength":24,
			"byteOffset":403612
		},
		{
			"buffer":0,
			"byteLength":24,
			"byteOffset":403636
		},
		{
			"buffer":0,
			"byteLength":44,
			"byteOffset":403660
		},
		{
			"buffer":0,
			"byteLength":176,
			"byteOffset":403704
		},
		{
			"buffer":0,
			"byteLength":24,
			"byteOffset":403880
		},
		{
			"buffer":0,
			"byteLength":24,
			"byteOffset":403904
		},
		{
			"buffer":0,
			"byteLength":32,
			"byteOffset":403928
		},
		{
			"buffer":0,
			"byteLength":24,
			"byteOffset":403960
		},
		{
			"buffer":0,
			"byteLength":24,
			"byteOffset":403984
		},
		{
			"buffer":0,
			"byteLength":32,
			"byteOffset":404008
		},
		{
			"buffer":0,
			"byteLength":24,
			"byteOffset":404040
		},
		{
			"buffer":0,
			"byteLength":24,
			"byteOffset":404064
		},
		{
			"buffer":0,
			"byteLength":176,
			"byteOffset":404088
		},
		{
			"buffer":0,
			"byteLength":24,
			"byteOffset":404264
		}
	],
	"samplers":[
		{
			"magFilter":9729,
			"minFilter":9987
		}
	],
	"buffers":[
		{
			"byteLength":404288,
			"uri":"plane.bin"
		}
	]
}
