{
	"asset":{
		"generator":"Khronos glTF Blender I/O v4.0.44",
		"version":"2.0"
	},
	"scene":0,
	"scenes":[
		{
			"name":"Scene",
			"nodes":[
				5
			]
		}
	],
	"nodes":[
		{
			"name":"ROUES",
			"rotation":[
				0.70710688829422,
				-5.338507236274381e-08,
				-5.338507236274381e-08,
				0.7071066498756409
			]
		},
		{
			"name":"ELICE",
			"rotation":[
				-4.695625221984301e-08,
				1.4086875665952903e-08,
				-0.6087614297866821,
				0.7933533787727356
			],
			"translation":[
				0.12971898913383484,
				0.17835304141044617,
				5.856432835571468e-06
			]
		},
		{
			"name":"GOUV",
			"rotation":[
				-1.3201044701816045e-08,
				-2.68440842887685e-08,
				0.15643449127674103,
				0.9876883029937744
			],
			"scale":[
				1,
				0.9999999403953552,
				0.9999999403953552
			],
			"translation":[
				-0.3604172170162201,
				0.0710207000374794,
				0.0002496674132999033
			]
		},
		{
			"name":"neutral_bone",
			"rotation":[
				-0.7071067690849304,
				0,
				0,
				0.7071067690849304
			]
		},
		{
			"mesh":0,
			"name":"plane",
			"skin":0
		},
		{
			"children":[
				4,
				0,
				1,
				2,
				3
			],
			"name":"Armature",
			"translation":[
				-0.0014949236065149307,
				0.03318091481924057,
				-0.00019470867118798196
			]
		}
	],
	"animations":[
		{
			"channels":[
				{
					"sampler":0,
					"target":{
						"node":0,
						"path":"translation"
					}
				},
				{
					"sampler":1,
					"target":{
						"node":0,
						"path":"rotation"
					}
				},
				{
					"sampler":2,
					"target":{
						"node":0,
						"path":"scale"
					}
				},
				{
					"sampler":3,
					"target":{
						"node":1,
						"path":"translation"
					}
				},
				{
					"sampler":4,
					"target":{
						"node":1,
						"path":"rotation"
					}
				},
				{
					"sampler":5,
					"target":{
						"node":1,
						"path":"scale"
					}
				},
				{
					"sampler":6,
					"target":{
						"node":2,
						"path":"translation"
					}
				},
				{
					"sampler":7,
					"target":{
						"node":2,
						"path":"rotation"
					}
				},
				{
					"sampler":8,
					"target":{
						"node":2,
						"path":"scale"
					}
				}
			],
			"name":"elice",
			"samplers":[
				{
					"input":7,
					"interpolation":"STEP",
					"output":8
				},
				{
					"input":7,
					"interpolation":"STEP",
					"output":9
				},
				{
					"input":7,
					"interpolation":"STEP",
					"output":10
				},
				{
					"input":7,
					"interpolation":"STEP",
					"output":11
				},
				{
					"input":12,
					"interpolation":"LINEAR",
					"output":13
				},
				{
					"input":7,
					"interpolation":"STEP",
					"output":14
				},
				{
					"input":7,
					"interpolation":"STEP",
					"output":15
				},
				{
					"input":7,
					"interpolation":"STEP",
					"output":16
				},
				{
					"input":7,
					"interpolation":"STEP",
					"output":17
				}
			]
		}
	],
	"materials":[
		{
			"doubleSided":true,
			"emissiveFactor":[
				1,
				1,
				1
			],
			"emissiveTexture":{
				"index":0
			},
			"name":"plane_Baked",
			"pbrMetallicRoughness":{
				"baseColorFactor":[
					0,
					0,
					0,
					1
				]
			}
		}
	],
	"meshes":[
		{
			"name":"Cube.012",
			"primitives":[
				{
					"attributes":{
						"POSITION":0,
						"NORMAL":1,
						"TEXCOORD_0":2,
						"JOINTS_0":3,
						"WEIGHTS_0":4
					},
					"indices":5,
					"material":0
				}
			]
		}
	],
	"textures":[
		{
			"sampler":0,
			"source":0
		}
	],
	"images":[
		{
			"mimeType":"image/jpeg",
			"name":"plane_Bake1_CyclesBake_COMBINED",
			"uri":"plane_Bake1_CyclesBake_COMBINED.jpg"
		}
	],
	"skins":[
		{
			"inverseBindMatrices":6,
			"joints":[
				0,
				1,
				2,
				3
			],
			"name":"Armature"
		}
	],
	"accessors":[
		{
			"bufferView":0,
			"componentType":5126,
			"count":6713,
			"max":[
				0.12849241495132446,
				0.26194334030151367,
				0.4595141112804413
			],
			"min":[
				-0.48790794610977173,
				-0.0004352053510956466,
				-0.45968881249427795
			],
			"type":"VEC3"
		},
		{
			"bufferView":1,
			"componentType":5126,
			"count":6713,
			"type":"VEC3"
		},
		{
			"bufferView":2,
			"componentType":5126,
			"count":6713,
			"type":"VEC2"
		},
		{
			"bufferView":3,
			"componentType":5121,
			"count":6713,
			"type":"VEC4"
		},
		{
			"bufferView":4,
			"componentType":5126,
			"count":6713,
			"type":"VEC4"
		},
		{
			"bufferView":5,
			"componentType":5123,
			"count":26442,
			"type":"SCALAR"
		},
		{
			"bufferView":6,
			"componentType":5126,
			"count":4,
			"type":"MAT4"
		},
		{
			"bufferView":7,
			"componentType":5126,
			"count":2,
			"max":[
				0.7916666666666666
			],
			"min":[
				0
			],
			"type":"SCALAR"
		},
		{
			"bufferView":8,
			"componentType":5126,
			"count":2,
			"type":"VEC3"
		},
		{
			"bufferView":9,
			"componentType":5126,
			"count":2,
			"type":"VEC4"
		},
		{
			"bufferView":10,
			"componentType":5126,
			"count":2,
			"type":"VEC3"
		},
		{
			"bufferView":11,
			"componentType":5126,
			"count":2,
			"type":"VEC3"
		},
		{
			"bufferView":12,
			"componentType":5126,
			"count":20,
			"max":[
				0.7916666666666666
			],
			"min":[
				0
			],
			"type":"SCALAR"
		},
		{
			"bufferView":13,
			"componentType":5126,
			"count":20,
			"type":"VEC4"
		},
		{
			"bufferView":14,
			"componentType":5126,
			"count":2,
			"type":"VEC3"
		},
		{
			"bufferView":15,
			"componentType":5126,
			"count":2,
			"type":"VEC3"
		},
		{
			"bufferView":16,
			"componentType":5126,
			"count":2,
			"type":"VEC4"
		},
		{
			"bufferView":17,
			"componentType":5126,
			"count":2,
			"type":"VEC3"
		}
	],
	"bufferViews":[
		{
			"buffer":0,
			"byteLength":80556,
			"byteOffset":0,
			"target":34962
		},
		{
			"buffer":0,
			"byteLength":80556,
			"byteOffset":80556,
			"target":34962
		},
		{
			"buffer":0,
			"byteLength":53704,
			"byteOffset":161112,
			"target":34962
		},
		{
			"buffer":0,
			"byteLength":26852,
			"byteOffset":214816,
			"target":34962
		},
		{
			"buffer":0,
			"byteLength":107408,
			"byteOffset":241668,
			"target":34962
		},
		{
			"buffer":0,
			"byteLength":52884,
			"byteOffset":349076,
			"target":34963
		},
		{
			"buffer":0,
			"byteLength":256,
			"byteOffset":401960
		},
		{
			"buffer":0,
			"byteLength":8,
			"byteOffset":402216
		},
		{
			"buffer":0,
			"byteLength":24,
			"byteOffset":402224
		},
		{
			"buffer":0,
			"byteLength":32,
			"byteOffset":402248
		},
		{
			"buffer":0,
			"byteLength":24,
			"byteOffset":402280
		},
		{
			"buffer":0,
			"byteLength":24,
			"byteOffset":402304
		},
		{
			"buffer":0,
			"byteLength":80,
			"byteOffset":402328
		},
		{
			"buffer":0,
			"byteLength":320,
			"byteOffset":402408
		},
		{
			"buffer":0,
			"byteLength":24,
			"byteOffset":402728
		},
		{
			"buffer":0,
			"byteLength":24,
			"byteOffset":402752
		},
		{
			"buffer":0,
			"byteLength":32,
			"byteOffset":402776
		},
		{
			"buffer":0,
			"byteLength":24,
			"byteOffset":402808
		}
	],
	"samplers":[
		{
			"magFilter":9729,
			"minFilter":9987
		}
	],
	"buffers":[
		{
			"byteLength":402832,
			"uri":"plane.bin"
		}
	]
}
